<mxfile host="app.diagrams.net" modified="2022-12-01T22:05:45.420Z" agent="5.0 (Macintosh)" etag="1a2Tll0oHO7AQKB9edcX" version="20.5.3" type="github">
  <diagram id="uUyRc9J5s0WFum2CouGp" name="Page-1">
    <mxGraphModel dx="983" dy="2203" grid="1" gridSize="10" guides="1" tooltips="1" connect="1" arrows="1" fold="1" page="1" pageScale="1" pageWidth="1100" pageHeight="850" math="0" shadow="0">
      <root>
        <mxCell id="0" />
        <mxCell id="1" parent="0" />
        <mxCell id="NzN_gofcV3ADPaDnJ4kV-149" value="" style="group" vertex="1" connectable="0" parent="1">
          <mxGeometry x="79" y="-1610" width="781" height="370" as="geometry" />
        </mxCell>
        <mxCell id="NzN_gofcV3ADPaDnJ4kV-88" value="" style="group" vertex="1" connectable="0" parent="NzN_gofcV3ADPaDnJ4kV-149">
          <mxGeometry x="88.5" width="352.5" height="190" as="geometry" />
        </mxCell>
        <mxCell id="NzN_gofcV3ADPaDnJ4kV-41" value="" style="rounded=0;whiteSpace=wrap;html=1;fillColor=#f5f5f5;strokeColor=#666666;fontColor=#333333;" vertex="1" parent="NzN_gofcV3ADPaDnJ4kV-88">
          <mxGeometry width="352.5" height="180" as="geometry" />
        </mxCell>
        <mxCell id="NzN_gofcV3ADPaDnJ4kV-43" value="&lt;font style=&quot;font-size: 12px;&quot;&gt;&lt;b style=&quot;&quot;&gt;Custom Metrics Data Pipeline&lt;/b&gt;&lt;/font&gt;" style="rounded=0;whiteSpace=wrap;html=1;fillColor=#b1ddf0;strokeColor=#10739e;fontSize=14;" vertex="1" parent="NzN_gofcV3ADPaDnJ4kV-88">
          <mxGeometry width="200" height="29" as="geometry" />
        </mxCell>
        <mxCell id="NzN_gofcV3ADPaDnJ4kV-78" value="" style="group" vertex="1" connectable="0" parent="NzN_gofcV3ADPaDnJ4kV-88">
          <mxGeometry x="15.5" y="42" width="192" height="49" as="geometry" />
        </mxCell>
        <mxCell id="NzN_gofcV3ADPaDnJ4kV-51" value="" style="rounded=1;whiteSpace=wrap;html=1;fontSize=14;" vertex="1" parent="NzN_gofcV3ADPaDnJ4kV-78">
          <mxGeometry width="192" height="49" as="geometry" />
        </mxCell>
        <mxCell id="NzN_gofcV3ADPaDnJ4kV-49" value="" style="sketch=0;html=1;dashed=0;whitespace=wrap;fillColor=#2875E2;strokeColor=#ffffff;points=[[0.005,0.63,0],[0.1,0.2,0],[0.9,0.2,0],[0.5,0,0],[0.995,0.63,0],[0.72,0.99,0],[0.5,1,0],[0.28,0.99,0]];verticalLabelPosition=bottom;align=center;verticalAlign=top;shape=mxgraph.kubernetes.icon;prIcon=vol;fontSize=14;" vertex="1" parent="NzN_gofcV3ADPaDnJ4kV-78">
          <mxGeometry x="5" y="7" width="36.46" height="35" as="geometry" />
        </mxCell>
        <mxCell id="NzN_gofcV3ADPaDnJ4kV-50" value="&lt;font style=&quot;font-size: 12px;&quot;&gt;&lt;b&gt;Data Caching System&lt;/b&gt;&lt;/font&gt;" style="text;html=1;align=center;verticalAlign=middle;resizable=0;points=[];autosize=1;strokeColor=none;fillColor=none;fontSize=14;" vertex="1" parent="NzN_gofcV3ADPaDnJ4kV-78">
          <mxGeometry x="40.46000000000001" y="9.5" width="150" height="30" as="geometry" />
        </mxCell>
        <mxCell id="NzN_gofcV3ADPaDnJ4kV-79" value="" style="group" vertex="1" connectable="0" parent="NzN_gofcV3ADPaDnJ4kV-88">
          <mxGeometry x="16.5" y="102" width="192" height="55.5" as="geometry" />
        </mxCell>
        <mxCell id="NzN_gofcV3ADPaDnJ4kV-57" value="" style="rounded=1;whiteSpace=wrap;html=1;fontSize=14;" vertex="1" parent="NzN_gofcV3ADPaDnJ4kV-79">
          <mxGeometry width="192" height="50" as="geometry" />
        </mxCell>
        <mxCell id="NzN_gofcV3ADPaDnJ4kV-59" value="&lt;font style=&quot;font-size: 12px;&quot;&gt;&lt;b&gt;Deployed Application&lt;/b&gt;&lt;/font&gt;" style="text;html=1;align=center;verticalAlign=middle;resizable=0;points=[];autosize=1;strokeColor=none;fillColor=none;fontSize=14;" vertex="1" parent="NzN_gofcV3ADPaDnJ4kV-79">
          <mxGeometry x="37" y="10" width="150" height="30" as="geometry" />
        </mxCell>
        <mxCell id="NzN_gofcV3ADPaDnJ4kV-142" value="" style="sketch=0;html=1;dashed=0;whitespace=wrap;fillColor=#2875E2;strokeColor=#ffffff;points=[[0.005,0.63,0],[0.1,0.2,0],[0.9,0.2,0],[0.5,0,0],[0.995,0.63,0],[0.72,0.99,0],[0.5,1,0],[0.28,0.99,0]];verticalLabelPosition=bottom;align=center;verticalAlign=top;shape=mxgraph.kubernetes.icon;prIcon=pod;fontSize=10;" vertex="1" parent="NzN_gofcV3ADPaDnJ4kV-79">
          <mxGeometry x="4" y="6.5" width="39.77" height="32.5" as="geometry" />
        </mxCell>
        <mxCell id="NzN_gofcV3ADPaDnJ4kV-87" style="edgeStyle=orthogonalEdgeStyle;rounded=0;orthogonalLoop=1;jettySize=auto;html=1;fontSize=12;" edge="1" parent="NzN_gofcV3ADPaDnJ4kV-88" target="NzN_gofcV3ADPaDnJ4kV-63">
          <mxGeometry relative="1" as="geometry">
            <mxPoint x="292.5" y="38" as="sourcePoint" />
          </mxGeometry>
        </mxCell>
        <mxCell id="NzN_gofcV3ADPaDnJ4kV-83" value="" style="group" vertex="1" connectable="0" parent="NzN_gofcV3ADPaDnJ4kV-88">
          <mxGeometry x="241.5" y="4" width="100" height="40" as="geometry" />
        </mxCell>
        <mxCell id="NzN_gofcV3ADPaDnJ4kV-76" value="" style="rounded=1;whiteSpace=wrap;html=1;fontSize=14;" vertex="1" parent="NzN_gofcV3ADPaDnJ4kV-83">
          <mxGeometry width="100" height="40" as="geometry" />
        </mxCell>
        <mxCell id="NzN_gofcV3ADPaDnJ4kV-75" value="" style="sketch=0;aspect=fixed;pointerEvents=1;shadow=0;dashed=0;html=1;strokeColor=none;labelPosition=center;verticalLabelPosition=bottom;verticalAlign=top;align=center;fillColor=#00188D;shape=mxgraph.mscae.enterprise.performance_monitor;fontSize=14;" vertex="1" parent="NzN_gofcV3ADPaDnJ4kV-83">
          <mxGeometry x="8" y="7" width="36.11" height="26" as="geometry" />
        </mxCell>
        <mxCell id="NzN_gofcV3ADPaDnJ4kV-80" value="&lt;div style=&quot;font-size: 11px;&quot;&gt;&lt;font style=&quot;font-size: 11px;&quot;&gt;&lt;b&gt;Metrics&lt;/b&gt;&lt;/font&gt;&lt;/div&gt;&lt;div style=&quot;font-size: 11px;&quot;&gt;&lt;font style=&quot;font-size: 11px;&quot;&gt;&lt;b&gt;Server&lt;br&gt;&lt;/b&gt;&lt;/font&gt;&lt;/div&gt;" style="text;html=1;align=center;verticalAlign=middle;resizable=0;points=[];autosize=1;strokeColor=none;fillColor=none;fontSize=12;" vertex="1" parent="NzN_gofcV3ADPaDnJ4kV-83">
          <mxGeometry x="38" y="-1" width="60" height="40" as="geometry" />
        </mxCell>
        <mxCell id="NzN_gofcV3ADPaDnJ4kV-110" value="" style="group" vertex="1" connectable="0" parent="NzN_gofcV3ADPaDnJ4kV-88">
          <mxGeometry x="272.5" y="63" width="70" height="89" as="geometry" />
        </mxCell>
        <mxCell id="NzN_gofcV3ADPaDnJ4kV-63" value="&lt;div&gt;&lt;br&gt;&lt;/div&gt;&lt;div&gt;&lt;br&gt;&lt;/div&gt;&lt;div&gt;&lt;br&gt;&lt;/div&gt;&lt;div&gt;Data&lt;/div&gt;&lt;div&gt;Pipeline&lt;br&gt;&lt;/div&gt;" style="rounded=1;whiteSpace=wrap;html=1;fontSize=14;" vertex="1" parent="NzN_gofcV3ADPaDnJ4kV-110">
          <mxGeometry width="70" height="89" as="geometry" />
        </mxCell>
        <mxCell id="NzN_gofcV3ADPaDnJ4kV-62" value="" style="outlineConnect=0;dashed=0;verticalLabelPosition=bottom;verticalAlign=top;align=center;html=1;shape=mxgraph.aws3.data_pipeline;fillColor=#F58534;gradientColor=none;fontSize=14;" vertex="1" parent="NzN_gofcV3ADPaDnJ4kV-110">
          <mxGeometry x="18.339999999999975" y="11" width="33.33" height="40" as="geometry" />
        </mxCell>
        <mxCell id="NzN_gofcV3ADPaDnJ4kV-112" style="edgeStyle=orthogonalEdgeStyle;rounded=0;orthogonalLoop=1;jettySize=auto;html=1;exitX=1;exitY=0.75;exitDx=0;exitDy=0;entryX=0;entryY=0.176;entryDx=0;entryDy=0;entryPerimeter=0;fontSize=12;" edge="1" parent="NzN_gofcV3ADPaDnJ4kV-88" source="NzN_gofcV3ADPaDnJ4kV-51" target="NzN_gofcV3ADPaDnJ4kV-63">
          <mxGeometry relative="1" as="geometry" />
        </mxCell>
        <mxCell id="NzN_gofcV3ADPaDnJ4kV-118" style="edgeStyle=orthogonalEdgeStyle;rounded=0;orthogonalLoop=1;jettySize=auto;html=1;exitX=1;exitY=0.5;exitDx=0;exitDy=0;entryX=0;entryY=0.75;entryDx=0;entryDy=0;fontSize=10;" edge="1" parent="NzN_gofcV3ADPaDnJ4kV-88" source="NzN_gofcV3ADPaDnJ4kV-57" target="NzN_gofcV3ADPaDnJ4kV-63">
          <mxGeometry relative="1" as="geometry">
            <Array as="points">
              <mxPoint x="209" y="130" />
            </Array>
          </mxGeometry>
        </mxCell>
        <mxCell id="NzN_gofcV3ADPaDnJ4kV-9" value="&lt;font style=&quot;font-size: 10px;&quot;&gt;Caching metrics&lt;/font&gt;" style="text;html=1;strokeColor=none;fillColor=none;align=center;verticalAlign=middle;whiteSpace=wrap;rounded=0;fontStyle=1" vertex="1" parent="NzN_gofcV3ADPaDnJ4kV-88">
          <mxGeometry x="208.5" y="63" width="60" height="30" as="geometry" />
        </mxCell>
        <mxCell id="NzN_gofcV3ADPaDnJ4kV-8" value="&lt;div style=&quot;font-size: 10px;&quot;&gt;&lt;font style=&quot;font-size: 10px;&quot;&gt;Inference &lt;br&gt;&lt;/font&gt;&lt;/div&gt;&lt;div style=&quot;font-size: 10px;&quot;&gt;&lt;font style=&quot;font-size: 10px;&quot;&gt;metrics&lt;/font&gt;&lt;/div&gt;" style="text;html=1;strokeColor=none;fillColor=none;align=center;verticalAlign=middle;whiteSpace=wrap;rounded=0;fontStyle=1" vertex="1" parent="NzN_gofcV3ADPaDnJ4kV-88">
          <mxGeometry x="192.5" y="120" width="90" height="20" as="geometry" />
        </mxCell>
        <mxCell id="NzN_gofcV3ADPaDnJ4kV-89" value="" style="group" vertex="1" connectable="0" parent="NzN_gofcV3ADPaDnJ4kV-149">
          <mxGeometry x="91" y="180" width="352.5" height="190" as="geometry" />
        </mxCell>
        <mxCell id="NzN_gofcV3ADPaDnJ4kV-146" value="" style="group" vertex="1" connectable="0" parent="NzN_gofcV3ADPaDnJ4kV-89">
          <mxGeometry x="42.5" y="8" width="310" height="170" as="geometry" />
        </mxCell>
        <mxCell id="NzN_gofcV3ADPaDnJ4kV-90" value="" style="rounded=0;whiteSpace=wrap;html=1;fillColor=#f5f5f5;strokeColor=#666666;fontColor=#333333;" vertex="1" parent="NzN_gofcV3ADPaDnJ4kV-146">
          <mxGeometry width="310" height="170" as="geometry" />
        </mxCell>
        <mxCell id="NzN_gofcV3ADPaDnJ4kV-91" value="&lt;b style=&quot;font-size: 12px;&quot;&gt;&lt;font style=&quot;font-size: 12px;&quot;&gt;Online Decision Intelligence&lt;/font&gt;&lt;br&gt;&lt;/b&gt;" style="rounded=0;whiteSpace=wrap;html=1;fillColor=#b1ddf0;strokeColor=#10739e;fontSize=14;" vertex="1" parent="NzN_gofcV3ADPaDnJ4kV-146">
          <mxGeometry width="190" height="29" as="geometry" />
        </mxCell>
        <mxCell id="NzN_gofcV3ADPaDnJ4kV-101" value="" style="group" vertex="1" connectable="0" parent="NzN_gofcV3ADPaDnJ4kV-146">
          <mxGeometry x="35" y="40" width="200" height="110" as="geometry" />
        </mxCell>
        <mxCell id="NzN_gofcV3ADPaDnJ4kV-104" style="edgeStyle=orthogonalEdgeStyle;rounded=0;orthogonalLoop=1;jettySize=auto;html=1;exitX=1;exitY=0.25;exitDx=0;exitDy=0;entryX=1;entryY=0.5;entryDx=0;entryDy=0;fontSize=12;" edge="1" parent="NzN_gofcV3ADPaDnJ4kV-101" source="NzN_gofcV3ADPaDnJ4kV-94" target="NzN_gofcV3ADPaDnJ4kV-99">
          <mxGeometry relative="1" as="geometry" />
        </mxCell>
        <mxCell id="NzN_gofcV3ADPaDnJ4kV-94" value="" style="rounded=1;whiteSpace=wrap;html=1;fontSize=12;" vertex="1" parent="NzN_gofcV3ADPaDnJ4kV-101">
          <mxGeometry y="59.5" width="200" height="50.5" as="geometry" />
        </mxCell>
        <mxCell id="NzN_gofcV3ADPaDnJ4kV-97" value="&lt;b&gt;Decision Making System&lt;/b&gt;" style="text;html=1;align=center;verticalAlign=middle;resizable=0;points=[];autosize=1;strokeColor=none;fillColor=none;fontSize=12;" vertex="1" parent="NzN_gofcV3ADPaDnJ4kV-101">
          <mxGeometry x="34" y="69.75" width="160" height="30" as="geometry" />
        </mxCell>
        <mxCell id="NzN_gofcV3ADPaDnJ4kV-92" value="" style="sketch=0;outlineConnect=0;fontColor=#232F3E;gradientColor=none;fillColor=#3F8624;strokeColor=none;dashed=0;verticalLabelPosition=bottom;verticalAlign=top;align=center;html=1;fontSize=12;fontStyle=0;aspect=fixed;pointerEvents=1;shape=mxgraph.aws4.iot_greengrass_component_machine_learning;" vertex="1" parent="NzN_gofcV3ADPaDnJ4kV-101">
          <mxGeometry x="6" y="67.75" width="34" height="34" as="geometry" />
        </mxCell>
        <mxCell id="NzN_gofcV3ADPaDnJ4kV-103" style="edgeStyle=orthogonalEdgeStyle;rounded=0;orthogonalLoop=1;jettySize=auto;html=1;exitX=0;exitY=0.5;exitDx=0;exitDy=0;entryX=0;entryY=0.5;entryDx=0;entryDy=0;fontSize=12;" edge="1" parent="NzN_gofcV3ADPaDnJ4kV-101" source="NzN_gofcV3ADPaDnJ4kV-99" target="NzN_gofcV3ADPaDnJ4kV-94">
          <mxGeometry relative="1" as="geometry" />
        </mxCell>
        <mxCell id="NzN_gofcV3ADPaDnJ4kV-99" value="" style="rounded=1;whiteSpace=wrap;html=1;fontSize=12;" vertex="1" parent="NzN_gofcV3ADPaDnJ4kV-101">
          <mxGeometry width="200" height="50.5" as="geometry" />
        </mxCell>
        <mxCell id="NzN_gofcV3ADPaDnJ4kV-98" value="&lt;b&gt;Decision Making Model&lt;br&gt;&lt;/b&gt;" style="text;html=1;align=center;verticalAlign=middle;resizable=0;points=[];autosize=1;strokeColor=none;fillColor=none;fontSize=12;" vertex="1" parent="NzN_gofcV3ADPaDnJ4kV-101">
          <mxGeometry x="30" y="12.25" width="160" height="30" as="geometry" />
        </mxCell>
        <mxCell id="NzN_gofcV3ADPaDnJ4kV-100" value="" style="sketch=0;outlineConnect=0;fontColor=#232F3E;gradientColor=none;fillColor=#3F8624;strokeColor=none;dashed=0;verticalLabelPosition=bottom;verticalAlign=top;align=center;html=1;fontSize=12;fontStyle=0;aspect=fixed;pointerEvents=1;shape=mxgraph.aws4.iot_greengrass_component_machine_learning;" vertex="1" parent="NzN_gofcV3ADPaDnJ4kV-101">
          <mxGeometry x="6" y="10.25" width="34" height="34" as="geometry" />
        </mxCell>
        <mxCell id="NzN_gofcV3ADPaDnJ4kV-107" style="edgeStyle=orthogonalEdgeStyle;rounded=0;orthogonalLoop=1;jettySize=auto;html=1;exitX=0.75;exitY=1;exitDx=0;exitDy=0;fontSize=12;entryX=1;entryY=0.25;entryDx=0;entryDy=0;" edge="1" parent="NzN_gofcV3ADPaDnJ4kV-149" source="NzN_gofcV3ADPaDnJ4kV-63" target="NzN_gofcV3ADPaDnJ4kV-99">
          <mxGeometry relative="1" as="geometry" />
        </mxCell>
        <mxCell id="NzN_gofcV3ADPaDnJ4kV-108" style="edgeStyle=orthogonalEdgeStyle;rounded=0;orthogonalLoop=1;jettySize=auto;html=1;exitX=0.75;exitY=1;exitDx=0;exitDy=0;entryX=1;entryY=0.5;entryDx=0;entryDy=0;fontSize=12;" edge="1" parent="NzN_gofcV3ADPaDnJ4kV-149" source="NzN_gofcV3ADPaDnJ4kV-63" target="NzN_gofcV3ADPaDnJ4kV-94">
          <mxGeometry relative="1" as="geometry" />
        </mxCell>
        <mxCell id="NzN_gofcV3ADPaDnJ4kV-134" value="" style="group" vertex="1" connectable="0" parent="NzN_gofcV3ADPaDnJ4kV-149">
          <mxGeometry x="471" y="60" width="310" height="220" as="geometry" />
        </mxCell>
        <mxCell id="NzN_gofcV3ADPaDnJ4kV-148" value="" style="group" vertex="1" connectable="0" parent="NzN_gofcV3ADPaDnJ4kV-134">
          <mxGeometry x="-17" width="224" height="220" as="geometry" />
        </mxCell>
        <mxCell id="NzN_gofcV3ADPaDnJ4kV-121" value="" style="rounded=0;whiteSpace=wrap;html=1;fillColor=#f5f5f5;strokeColor=#666666;fontColor=#333333;" vertex="1" parent="NzN_gofcV3ADPaDnJ4kV-148">
          <mxGeometry width="220" height="220" as="geometry" />
        </mxCell>
        <mxCell id="NzN_gofcV3ADPaDnJ4kV-122" value="&lt;b style=&quot;font-size: 12px;&quot;&gt;&lt;font style=&quot;font-size: 12px;&quot;&gt;Deployment Scaler&lt;/font&gt;&lt;br&gt;&lt;/b&gt;" style="rounded=0;whiteSpace=wrap;html=1;fillColor=#b1ddf0;strokeColor=#10739e;fontSize=14;" vertex="1" parent="NzN_gofcV3ADPaDnJ4kV-148">
          <mxGeometry width="137.5" height="29" as="geometry" />
        </mxCell>
        <mxCell id="NzN_gofcV3ADPaDnJ4kV-137" value="" style="group" vertex="1" connectable="0" parent="NzN_gofcV3ADPaDnJ4kV-148">
          <mxGeometry x="30" y="151" width="160" height="50.5" as="geometry" />
        </mxCell>
        <mxCell id="NzN_gofcV3ADPaDnJ4kV-125" value="" style="rounded=1;whiteSpace=wrap;html=1;fontSize=12;" vertex="1" parent="NzN_gofcV3ADPaDnJ4kV-137">
          <mxGeometry width="160" height="50.5" as="geometry" />
        </mxCell>
        <mxCell id="NzN_gofcV3ADPaDnJ4kV-126" value="&lt;b&gt;Autoscaling API&lt;/b&gt;" style="text;html=1;align=center;verticalAlign=middle;resizable=0;points=[];autosize=1;strokeColor=none;fillColor=none;fontSize=12;" vertex="1" parent="NzN_gofcV3ADPaDnJ4kV-137">
          <mxGeometry x="33" y="9.25" width="120" height="30" as="geometry" />
        </mxCell>
        <mxCell id="NzN_gofcV3ADPaDnJ4kV-133" value="" style="sketch=0;outlineConnect=0;fontColor=#232F3E;gradientColor=none;fillColor=#D45B07;strokeColor=none;dashed=0;verticalLabelPosition=bottom;verticalAlign=top;align=center;html=1;fontSize=12;fontStyle=0;aspect=fixed;pointerEvents=1;shape=mxgraph.aws4.auto_scaling2;" vertex="1" parent="NzN_gofcV3ADPaDnJ4kV-137">
          <mxGeometry x="7" y="8.25" width="32" height="32" as="geometry" />
        </mxCell>
        <mxCell id="NzN_gofcV3ADPaDnJ4kV-141" value="" style="group" vertex="1" connectable="0" parent="NzN_gofcV3ADPaDnJ4kV-148">
          <mxGeometry x="10" y="50" width="200" height="50.5" as="geometry" />
        </mxCell>
        <mxCell id="NzN_gofcV3ADPaDnJ4kV-129" value="" style="rounded=1;whiteSpace=wrap;html=1;fontSize=12;" vertex="1" parent="NzN_gofcV3ADPaDnJ4kV-141">
          <mxGeometry width="200" height="50.5" as="geometry" />
        </mxCell>
        <mxCell id="NzN_gofcV3ADPaDnJ4kV-130" value="&lt;div&gt;&lt;b&gt;Decision Intelligence&lt;/b&gt;&lt;/div&gt;&lt;div&gt;&lt;b&gt;Model Evaluation&lt;/b&gt;&lt;/div&gt;" style="text;html=1;align=center;verticalAlign=middle;resizable=0;points=[];autosize=1;strokeColor=none;fillColor=none;fontSize=12;" vertex="1" parent="NzN_gofcV3ADPaDnJ4kV-141">
          <mxGeometry x="39" y="5.25" width="140" height="40" as="geometry" />
        </mxCell>
        <mxCell id="NzN_gofcV3ADPaDnJ4kV-136" value="" style="sketch=0;aspect=fixed;pointerEvents=1;shadow=0;dashed=0;html=1;strokeColor=#10739e;labelPosition=center;verticalLabelPosition=bottom;verticalAlign=top;align=center;fillColor=#b1ddf0;shape=mxgraph.mscae.enterprise.performance;fontSize=10;" vertex="1" parent="NzN_gofcV3ADPaDnJ4kV-141">
          <mxGeometry x="9.5" y="11.75" width="27" height="27" as="geometry" />
        </mxCell>
        <mxCell id="NzN_gofcV3ADPaDnJ4kV-143" style="edgeStyle=orthogonalEdgeStyle;rounded=0;orthogonalLoop=1;jettySize=auto;html=1;exitX=0.5;exitY=0;exitDx=0;exitDy=0;entryX=0.5;entryY=1;entryDx=0;entryDy=0;fontSize=10;" edge="1" parent="NzN_gofcV3ADPaDnJ4kV-148" source="NzN_gofcV3ADPaDnJ4kV-125" target="NzN_gofcV3ADPaDnJ4kV-129">
          <mxGeometry relative="1" as="geometry" />
        </mxCell>
        <mxCell id="NzN_gofcV3ADPaDnJ4kV-145" value="&lt;div&gt;&lt;b&gt;Deployment Scaling&lt;/b&gt;&lt;/div&gt;&lt;div&gt;&lt;b&gt;(via K8s)&lt;br&gt;&lt;/b&gt;&lt;/div&gt;" style="text;html=1;align=center;verticalAlign=middle;resizable=0;points=[];autosize=1;strokeColor=none;fillColor=none;fontSize=10;" vertex="1" parent="NzN_gofcV3ADPaDnJ4kV-148">
          <mxGeometry x="104" y="110" width="120" height="40" as="geometry" />
        </mxCell>
        <mxCell id="NzN_gofcV3ADPaDnJ4kV-132" style="edgeStyle=orthogonalEdgeStyle;rounded=0;orthogonalLoop=1;jettySize=auto;html=1;exitX=1;exitY=0.75;exitDx=0;exitDy=0;entryX=0.5;entryY=1;entryDx=0;entryDy=0;fontSize=10;" edge="1" parent="NzN_gofcV3ADPaDnJ4kV-149" source="NzN_gofcV3ADPaDnJ4kV-94" target="NzN_gofcV3ADPaDnJ4kV-125">
          <mxGeometry relative="1" as="geometry" />
        </mxCell>
        <mxCell id="NzN_gofcV3ADPaDnJ4kV-147" style="edgeStyle=orthogonalEdgeStyle;rounded=0;orthogonalLoop=1;jettySize=auto;html=1;exitX=0.25;exitY=1;exitDx=0;exitDy=0;entryX=0.5;entryY=1;entryDx=0;entryDy=0;fontSize=10;" edge="1" parent="NzN_gofcV3ADPaDnJ4kV-149" source="NzN_gofcV3ADPaDnJ4kV-129" target="NzN_gofcV3ADPaDnJ4kV-57">
          <mxGeometry relative="1" as="geometry">
            <Array as="points">
              <mxPoint x="531" y="170" />
              <mxPoint x="201" y="170" />
            </Array>
          </mxGeometry>
        </mxCell>
        <mxCell id="NzN_gofcV3ADPaDnJ4kV-44" value="" style="sketch=0;html=1;dashed=0;whitespace=wrap;fillColor=#2875E2;strokeColor=#ffffff;points=[[0.005,0.63,0],[0.1,0.2,0],[0.9,0.2,0],[0.5,0,0],[0.995,0.63,0],[0.72,0.99,0],[0.5,1,0],[0.28,0.99,0]];verticalLabelPosition=bottom;align=center;verticalAlign=top;shape=mxgraph.kubernetes.icon;prIcon=api;fillOpacity=100;" vertex="1" parent="NzN_gofcV3ADPaDnJ4kV-149">
          <mxGeometry y="42" width="50" height="48" as="geometry" />
        </mxCell>
        <mxCell id="NzN_gofcV3ADPaDnJ4kV-47" style="edgeStyle=orthogonalEdgeStyle;rounded=0;orthogonalLoop=1;jettySize=auto;html=1;entryX=0;entryY=0.5;entryDx=0;entryDy=0;" edge="1" parent="NzN_gofcV3ADPaDnJ4kV-149" source="NzN_gofcV3ADPaDnJ4kV-44" target="NzN_gofcV3ADPaDnJ4kV-51">
          <mxGeometry relative="1" as="geometry">
            <mxPoint x="1" y="102" as="targetPoint" />
          </mxGeometry>
        </mxCell>
        <mxCell id="NzN_gofcV3ADPaDnJ4kV-48" value="&lt;div style=&quot;font-size: 10px;&quot;&gt;&lt;b&gt;&lt;font style=&quot;font-size: 10px;&quot;&gt;Incoming&lt;/font&gt;&lt;/b&gt;&lt;/div&gt;&lt;div style=&quot;font-size: 10px;&quot;&gt;&lt;b&gt;&lt;font style=&quot;font-size: 10px;&quot;&gt;Traffic&lt;/font&gt;&lt;/b&gt;&lt;/div&gt;" style="edgeLabel;html=1;align=center;verticalAlign=middle;resizable=0;points=[];" vertex="1" connectable="0" parent="NzN_gofcV3ADPaDnJ4kV-47">
          <mxGeometry relative="1" as="geometry">
            <mxPoint x="-15" y="-21" as="offset" />
          </mxGeometry>
        </mxCell>
      </root>
    </mxGraphModel>
  </diagram>
</mxfile>
